<?xml version="1.0" encoding="utf-8"?>
<!-- Generator: Adobe Illustrator 19.1.0, SVG Export Plug-In . SVG Version: 6.00 Build 0)  -->
<svg version="1.1" xmlns="http://www.w3.org/2000/svg" xmlns:xlink="http://www.w3.org/1999/xlink" x="0px" y="0px"
	 viewBox="0 0 192 192" style="enable-background:new 0 0 192 192;" xml:space="preserve">
<style type="text/css">
	.st0{fill:none;}
	.st1{clip-path:url(#SVGID_2_);}
	.st2{fill:none;stroke:#000000;stroke-width:0.25;stroke-miterlimit:10;}
	.st3{opacity:0.4;}
	.st4{clip-path:url(#SVGID_4_);}
	.st5{display:none;}
	.st6{display:inline;fill:#E0E0E0;}
	.st7{display:inline;fill:#FFFFFF;fill-opacity:0.2;}
	.st8{display:inline;fill:#212121;fill-opacity:0.1;}
	.st9{fill:#FFFFFF;}
	.st10{fill:#2979FF;}
	.st11{fill:#FF4081;}
	.st12{display:inline;}
	.st13{fill:#F5F5F5;}
	.st14{display:inline;fill:url(#SVGID_5_);}
</style>
<symbol  id="material_x5F_product_x5F_icon_x5F_border" viewBox="0 -192 192 192">
	<polygon class="st0" points="0,0 0,-192 192,-192 192,0 	"/>
</symbol>
<symbol  id="material_x5F_product_x5F_icon_x5F_grid" viewBox="0 -192 192 192">
	<g>
		<defs>
			<polygon id="SVGID_1_" points="192,-192 0,-192 0,0 192,0 			"/>
		</defs>
		<clipPath id="SVGID_2_">
			<use xlink:href="#SVGID_1_"  style="overflow:visible;"/>
		</clipPath>
		<g class="st1">
			<g>
				<line class="st2" x1="4" y1="-192" x2="4" y2="0"/>
				<line class="st2" x1="8" y1="-192" x2="8" y2="0"/>
				<line class="st2" x1="12" y1="-192" x2="12" y2="0"/>
				<line class="st2" x1="16" y1="-192" x2="16" y2="0"/>
				<line class="st2" x1="20" y1="-192" x2="20" y2="0"/>
				<line class="st2" x1="24" y1="-192" x2="24" y2="0"/>
				<line class="st2" x1="28" y1="-192" x2="28" y2="0"/>
				<line class="st2" x1="32" y1="-192" x2="32" y2="0"/>
				<line class="st2" x1="36" y1="-192" x2="36" y2="0"/>
				<line class="st2" x1="40" y1="-192" x2="40" y2="0"/>
				<line class="st2" x1="44" y1="-192" x2="44" y2="0"/>
				<line class="st2" x1="48" y1="-192" x2="48" y2="0"/>
				<line class="st2" x1="52" y1="-192" x2="52" y2="0"/>
				<line class="st2" x1="56" y1="-192" x2="56" y2="0"/>
				<line class="st2" x1="60" y1="-192" x2="60" y2="0"/>
				<line class="st2" x1="64" y1="-192" x2="64" y2="0"/>
				<line class="st2" x1="68" y1="-192" x2="68" y2="0"/>
				<line class="st2" x1="72" y1="-192" x2="72" y2="0"/>
				<line class="st2" x1="76" y1="-192" x2="76" y2="0"/>
				<line class="st2" x1="80" y1="-192" x2="80" y2="0"/>
				<line class="st2" x1="84" y1="-192" x2="84" y2="0"/>
				<line class="st2" x1="88" y1="-192" x2="88" y2="0"/>
				<line class="st2" x1="92" y1="-192" x2="92" y2="0"/>
				<line class="st2" x1="96" y1="-192" x2="96" y2="0"/>
				<line class="st2" x1="100" y1="-192" x2="100" y2="0"/>
				<line class="st2" x1="104" y1="-192" x2="104" y2="0"/>
				<line class="st2" x1="108" y1="-192" x2="108" y2="0"/>
				<line class="st2" x1="112" y1="-192" x2="112" y2="0"/>
				<line class="st2" x1="116" y1="-192" x2="116" y2="0"/>
				<line class="st2" x1="120" y1="-192" x2="120" y2="0"/>
				<line class="st2" x1="124" y1="-192" x2="124" y2="0"/>
				<line class="st2" x1="128" y1="-192" x2="128" y2="0"/>
				<line class="st2" x1="132" y1="-192" x2="132" y2="0"/>
				<line class="st2" x1="136" y1="-192" x2="136" y2="0"/>
				<line class="st2" x1="140" y1="-192" x2="140" y2="0"/>
				<line class="st2" x1="144" y1="-192" x2="144" y2="0"/>
				<line class="st2" x1="148" y1="-192" x2="148" y2="0"/>
				<line class="st2" x1="152" y1="-192" x2="152" y2="0"/>
				<line class="st2" x1="156" y1="-192" x2="156" y2="0"/>
				<line class="st2" x1="160" y1="-192" x2="160" y2="0"/>
				<line class="st2" x1="164" y1="-192" x2="164" y2="0"/>
				<line class="st2" x1="168" y1="-192" x2="168" y2="0"/>
				<line class="st2" x1="172" y1="-192" x2="172" y2="0"/>
				<line class="st2" x1="176" y1="-192" x2="176" y2="0"/>
				<line class="st2" x1="180" y1="-192" x2="180" y2="0"/>
				<line class="st2" x1="184" y1="-192" x2="184" y2="0"/>
				<line class="st2" x1="188" y1="-192" x2="188" y2="0"/>
			</g>
			<g>
				<line class="st2" x1="0" y1="-4" x2="192" y2="-4"/>
				<line class="st2" x1="0" y1="-8" x2="192" y2="-8"/>
				<line class="st2" x1="0" y1="-12" x2="192" y2="-12"/>
				<line class="st2" x1="0" y1="-16" x2="192" y2="-16"/>
				<line class="st2" x1="0" y1="-20" x2="192" y2="-20"/>
				<line class="st2" x1="0" y1="-24" x2="192" y2="-24"/>
				<line class="st2" x1="0" y1="-28" x2="192" y2="-28"/>
				<line class="st2" x1="0" y1="-32" x2="192" y2="-32"/>
				<line class="st2" x1="0" y1="-36" x2="192" y2="-36"/>
				<line class="st2" x1="0" y1="-40" x2="192" y2="-40"/>
				<line class="st2" x1="0" y1="-44" x2="192" y2="-44"/>
				<line class="st2" x1="0" y1="-48" x2="192" y2="-48"/>
				<line class="st2" x1="0" y1="-52" x2="192" y2="-52"/>
				<line class="st2" x1="0" y1="-56" x2="192" y2="-56"/>
				<line class="st2" x1="0" y1="-60" x2="192" y2="-60"/>
				<line class="st2" x1="0" y1="-64" x2="192" y2="-64"/>
				<line class="st2" x1="0" y1="-68" x2="192" y2="-68"/>
				<line class="st2" x1="0" y1="-72" x2="192" y2="-72"/>
				<line class="st2" x1="0" y1="-76" x2="192" y2="-76"/>
				<line class="st2" x1="0" y1="-80" x2="192" y2="-80"/>
				<line class="st2" x1="0" y1="-84" x2="192" y2="-84"/>
				<line class="st2" x1="0" y1="-88" x2="192" y2="-88"/>
				<line class="st2" x1="0" y1="-92" x2="192" y2="-92"/>
				<line class="st2" x1="0" y1="-96" x2="192" y2="-96"/>
				<line class="st2" x1="0" y1="-100" x2="192" y2="-100"/>
				<line class="st2" x1="0" y1="-104" x2="192" y2="-104"/>
				<line class="st2" x1="0" y1="-108" x2="192" y2="-108"/>
				<line class="st2" x1="0" y1="-112" x2="192" y2="-112"/>
				<line class="st2" x1="0" y1="-116" x2="192" y2="-116"/>
				<line class="st2" x1="0" y1="-120" x2="192" y2="-120"/>
				<line class="st2" x1="0" y1="-124" x2="192" y2="-124"/>
				<line class="st2" x1="0" y1="-128" x2="192" y2="-128"/>
				<line class="st2" x1="0" y1="-132" x2="192" y2="-132"/>
				<line class="st2" x1="0" y1="-136" x2="192" y2="-136"/>
				<line class="st2" x1="0" y1="-140" x2="192" y2="-140"/>
				<line class="st2" x1="0" y1="-144" x2="192" y2="-144"/>
				<line class="st2" x1="0" y1="-148" x2="192" y2="-148"/>
				<line class="st2" x1="0" y1="-152" x2="192" y2="-152"/>
				<line class="st2" x1="0" y1="-156" x2="192" y2="-156"/>
				<line class="st2" x1="0" y1="-160" x2="192" y2="-160"/>
				<line class="st2" x1="0" y1="-164" x2="192" y2="-164"/>
				<line class="st2" x1="0" y1="-168" x2="192" y2="-168"/>
				<line class="st2" x1="0" y1="-172" x2="192" y2="-172"/>
				<line class="st2" x1="0" y1="-176" x2="192" y2="-176"/>
				<line class="st2" x1="0" y1="-180" x2="192" y2="-180"/>
				<line class="st2" x1="0" y1="-184" x2="192" y2="-184"/>
				<line class="st2" x1="0" y1="-188" x2="192" y2="-188"/>
			</g>
			<g>
				<path d="M191.8-0.3v-191.5H0.3V-0.3H191.8 M192,0H0v-192h192V0L192,0z"/>
			</g>
		</g>
	</g>
</symbol>
<symbol  id="material_x5F_product_x5F_icon_x5F_keylines" viewBox="0 -192 192 192">
	<g class="st3">
		<defs>
			<path id="SVGID_3_" class="st3" d="M0,0v-192h192V0H0z"/>
		</defs>
		<clipPath id="SVGID_4_">
			<use xlink:href="#SVGID_3_"  style="overflow:visible;"/>
		</clipPath>
		<g class="st4">
			<line class="st2" x1="0.2" y1="-0.2" x2="191.7" y2="-191.7"/>
			<g>
				<path d="M191.8-0.3v-191.5H0.3V-0.3H191.8 M192,0H0v-192h192V0L192,0z"/>
			</g>
			<line class="st2" x1="191.7" y1="-0.2" x2="0.2" y2="-191.7"/>
			<line class="st2" x1="124" y1="0" x2="124" y2="-192"/>
			<line class="st2" x1="68" y1="0" x2="68" y2="-192"/>
			<line class="st2" x1="192" y1="-124" x2="0" y2="-124"/>
			<line class="st2" x1="192" y1="-68" x2="0" y2="-68"/>
			<path class="st2" d="M136-96c0-22.1-17.9-40-40-40c-22.1,0-40,17.9-40,40c0,22.1,17.9,40,40,40C118.1-56,136-73.9,136-96z"/>
			<line class="st2" x1="0" y1="-96" x2="192" y2="-96"/>
			<line class="st2" x1="96" y1="0" x2="96" y2="-192"/>
		</g>
		<g class="st4">
			<g>
				<path d="M96-8.2c48.4,0,87.8-39.4,87.8-87.8s-39.4-87.8-87.8-87.8S8.2-144.4,8.2-96S47.6-8.2,96-8.2 M96-8C47.4-8,8-47.4,8-96
					s39.4-88,88-88c48.6,0,88,39.4,88,88S144.6-8,96-8L96-8z"/>
			</g>
		</g>
		<g class="st4">
			<g>
				<path d="M160-20.2c6.5,0,11.8-5.3,11.8-11.8v-128c0-6.5-5.3-11.8-11.8-11.8H32c-6.5,0-11.8,5.3-11.8,11.8v128
					c0,6.5,5.3,11.8,11.8,11.8H160 M160-20H32c-6.6,0-12-5.4-12-12v-128c0-6.6,5.4-12,12-12h128c6.6,0,12,5.4,12,12v128
					C172-25.4,166.6-20,160-20L160-20z"/>
			</g>
		</g>
		<g class="st4">
			<g>
				<path d="M148-8.2c6.5,0,11.8-5.3,11.8-11.8v-152c0-6.5-5.3-11.8-11.8-11.8H44c-6.5,0-11.8,5.3-11.8,11.8v152
					c0,6.5,5.3,11.8,11.8,11.8H148 M148-8H44c-6.6,0-12-5.4-12-12v-152c0-6.6,5.4-12,12-12h104c6.6,0,12,5.4,12,12v152
					C160-13.4,154.6-8,148-8L148-8z"/>
			</g>
		</g>
		<g class="st4">
			<g>
				<path d="M172-32.2c6.5,0,11.8-5.3,11.8-11.8v-104c0-6.5-5.3-11.8-11.8-11.8H20c-6.5,0-11.8,5.3-11.8,11.8v104
					c0,6.5,5.3,11.8,11.8,11.8H172 M172-32H20c-6.6,0-12-5.4-12-12v-104c0-6.6,5.4-12,12-12h152c6.6,0,12,5.4,12,12v104
					C184-37.4,178.6-32,172-32L172-32z"/>
			</g>
		</g>
	</g>
</symbol>
<g id="back" class="st5">
	<path class="st6" d="M160,172H32c-6.6,0-12-5.4-12-12V32c0-6.6,5.4-12,12-12h128c6.6,0,12,5.4,12,12v128
		C172,166.6,166.6,172,160,172z"/>
</g>
<g id="back_x2C__edge" class="st5">
	<path class="st7" d="M160,20H32c-6.6,0-12,5.4-12,12v1c0-6.6,5.4-12,12-12h128c6.6,0,12,5.4,12,12v-1C172,25.4,166.6,20,160,20z"/>
	<path class="st8" d="M160,172H32c-6.6,0-12-5.4-12-12v-1c0,6.6,5.4,12,12,12h128c6.6,0,12-5.4,12-12v1C172,166.6,166.6,172,160,172
		z"/>
</g>
<g id="trim_area">
	<g>
		<g>
			
				<image style="overflow:visible;opacity:0.5;" width="755" height="755" xlink:href="9EDB9C01.png"  transform="matrix(0.24 0 0 0.24 5.0668 6.2824)">
			</image>
			<g>
				<circle class="st9" cx="95.6" cy="95.5" r="87.5"/>
			</g>
		</g>
		<g>
			
				<image style="overflow:visible;opacity:0.5;" width="275" height="206" xlink:href="9EDB9C00.png"  transform="matrix(0.24 0 0 0.24 93.7668 74.1342)">
			</image>
			<g>
				<g>
					<path class="st10" d="M95.6,121.3v-6.6c13.9,0,26.8-1.8,36.4-4.9c12.6-4.2,19.3-10.4,19.3-14.4c0-3.6-5.6-9.3-17.9-13.6
						l2.1-6.2c14,4.8,22.3,12.2,22.3,19.8c0,4.1-2.4,8.2-6.9,11.9c-4.1,3.4-10,6.4-16.8,8.7C123.8,119.4,110.1,121.3,95.6,121.3z"/>
				</g>
			</g>
		</g>
		<g>
			
				<image style="overflow:visible;opacity:0.5;" width="275" height="208" xlink:href="9EDB9C0E.png"  transform="matrix(0.24 0 0 0.24 31.5141 68.2742)">
			</image>
			<g>
				<g>
					<path class="st10" d="M56.3,116c-14.2-4.8-23-12.7-23-20.6c0-7.6,8.2-14.9,21.8-19.7c11-3.8,25.4-6,40.4-6v6.6
						c-14.1,0-28.1,2-38.3,5.6c-12,4.2-17.4,9.9-17.4,13.5c0,4,6.4,10.2,18.5,14.3L56.3,116z"/>
				</g>
			</g>
		</g>
		<g>
			
				<image style="overflow:visible;opacity:0.5;" width="168" height="300" xlink:href="9EDB9C18.png"  transform="matrix(0.24 0 0 0.24 55.3081 81.1677)">
			</image>
			<g>
				<g>
					<path class="st10" d="M70.6,150.9c-2.3,0-4.4-0.5-6.2-1.5c-6.6-3.8-8.9-14.5-6.2-28.7c2.2-11.5,7.5-25,15-38l5.7,3.3
						c-7,12.2-12.3,25.3-14.3,36c-2.4,12.4-0.1,20,3,21.8c3.4,2,12-0.4,21.7-8.9l4.3,5C85.4,147,77.1,150.9,70.6,150.9z"/>
				</g>
			</g>
		</g>
		<g>
			
				<image style="overflow:visible;opacity:0.3;" width="117" height="117" xlink:href="9EDB9C19.png"  transform="matrix(0.24 0 0 0.24 81.5665 84.6484)">
			</image>
			<g>
				<circle class="st11" cx="95.6" cy="95.6" r="11"/>
			</g>
		</g>
		<g>
			
				<image style="overflow:visible;opacity:0.5;" width="164" height="300" xlink:href="9EDB9C1A.png"  transform="matrix(0.24 0 0 0.24 96.4597 38.5689)">
			</image>
			<g>
				<g>
					<path class="st10" d="M117.9,108.4l-5.7-3.3c6.9-12,11.9-24.1,13.9-34c2.7-13,0.6-21.9-2.8-23.9c-3.1-1.8-10.9,0.2-20.7,8.7
						l-4.3-5c11.2-9.7,21.7-13.3,28.3-9.5c3.5,2,5.9,6.2,6.9,12c0.9,5.3,0.6,11.8-0.9,18.9C130.4,83,125.2,95.8,117.9,108.4z"/>
				</g>
			</g>
		</g>
		<g>
			
				<image style="overflow:visible;opacity:0.5;" width="269" height="207" xlink:href="9EDB9C1B.png"  transform="matrix(0.24 0 0 0.24 71.4688 103.652)">
			</image>
			<g>
				<g>
					<path class="st10" d="M120.6,151c-6.1,0-13.9-3.7-21.9-10.5c-8.9-7.6-17.9-19-25.4-32l5.7-3.3c7.1,12.2,15.8,23.3,24,30.3
						c7.4,6.4,13.7,8.9,17.6,8.9c1.1,0,2.1-0.2,2.8-0.6c3.4-2,5.6-10.6,3.1-23.2l6.5-1.3c2.9,14.7,0.5,26.3-6.3,30.2
						C124.9,150.5,122.8,151,120.6,151z"/>
				</g>
			</g>
		</g>
		<g>
			
				<image style="overflow:visible;opacity:0.5;" width="269" height="206" xlink:href="9EDB9C1C.png"  transform="matrix(0.24 0 0 0.24 55.3335 38.6983)">
			</image>
			<g>
				<g>
					<path class="st10" d="M112.2,85.9c-7-12-15-22.3-22.5-29C79.7,48,71,45.4,67.6,47.4c-3.1,1.8-5.3,9.5-2.8,22.3L58.3,71
						c-2.8-14.5-0.6-25.5,5.9-29.3c3.5-2,8.3-2,13.8,0c5,1.9,10.5,5.4,15.9,10.2c8.1,7.2,16.5,18.1,23.8,30.7L112.2,85.9z"/>
				</g>
			</g>
		</g>
	</g>
</g>
<g id="front" class="st5">
	<g class="st12">
		<g>
			
				<image style="overflow:visible;opacity:0.1;" width="434" height="434" xlink:href="9EDB9C1D.png"  transform="matrix(0.24 0 0 0.24 44 48)">
			</image>
			<circle class="st13" cx="96" cy="96" r="40"/>
		</g>
	</g>
</g>
<g id="front_x2C__edge" class="st5">
	<path class="st7" d="M96,57c21.9,0,39.7,17.6,40,39.5c0-0.2,0-0.3,0-0.5c0-22.1-17.9-40-40-40S56,73.9,56,96c0,0.2,0,0.3,0,0.5
		C56.3,74.6,74.1,57,96,57z"/>
	<path class="st8" d="M96,136c21.9,0,39.7-17.6,40-39.5c0,0.2,0,0.3,0,0.5c0,22.1-17.9,40-40,40s-40-17.9-40-40c0-0.2,0-0.3,0-0.5
		C56.3,118.4,74.1,136,96,136z"/>
</g>
<g id="finish" class="st5">
	<radialGradient id="SVGID_5_" cx="23.7676" cy="23.9332" r="204.6249" gradientUnits="userSpaceOnUse">
		<stop  offset="0" style="stop-color:#FFFFFF;stop-opacity:0.1"/>
		<stop  offset="1" style="stop-color:#FFFFFF;stop-opacity:0"/>
	</radialGradient>
	<path class="st14" d="M160,172H32c-6.6,0-12-5.4-12-12V32c0-6.6,5.4-12,12-12h128c6.6,0,12,5.4,12,12v128
		C172,166.6,166.6,172,160,172z"/>
</g>
<g id="border" class="st5">
	
		<use xlink:href="#material_x5F_product_x5F_icon_x5F_border"  width="192" height="192" y="-192" transform="matrix(1 0 0 -1 0 0)" style="display:inline;overflow:visible;"/>
</g>
<g id="grid" class="st5">
	
		<use xlink:href="#material_x5F_product_x5F_icon_x5F_grid"  width="192" height="192" id="XMLID_1_" x="0" y="-192" transform="matrix(1 0 0 -1 0 0)" style="display:inline;overflow:visible;opacity:0.15;"/>
</g>
<g id="keylines" class="st5">
	
		<use xlink:href="#material_x5F_product_x5F_icon_x5F_keylines"  width="192" height="192" x="0" y="-192" transform="matrix(1 0 0 -1 0 0)" style="display:inline;overflow:visible;"/>
</g>
</svg>
